<svg width="100" height="100" viewBox="0 0 100 100" fill="none" xmlns="http://www.w3.org/2000/svg">
<rect width="100" height="100" fill="transparent"/>
<path d="M69.2 32.4H69.2003C70.4253 32.3998 71.604 32.868 72.4951 33.7086C73.1377 34.3149 73.5957 35.0819 73.8277 35.9213L50 47.8336L26.1723 35.9213C26.4043 35.0819 26.8622 34.3149 27.5049 33.7086C28.396 32.868 29.5747 32.3998 30.7997 32.4H30.8H69.2ZM49.2844 58.2087L50 58.5665L50.7155 58.2087L74 46.5665V62.8001C74 64.0731 73.4943 65.294 72.5941 66.1942C71.6939 67.0943 70.473 67.6001 69.2 67.6001H30.8C29.527 67.6001 28.3061 67.0943 27.4059 66.1942C26.5057 65.294 26 64.0731 26 62.8001V46.5665L49.2844 58.2087Z" fill="white" stroke="white" stroke-width="3.2"/>
</svg>
